<svg xmlns="http://www.w3.org/2000/svg" xmlns:xlink="http://www.w3.org/1999/xlink" width="800" zoomAndPan="magnify" viewBox="0 0 600 599.999999" height="800" preserveAspectRatio="xMidYMid meet" version="1.0"><defs><clipPath id="461bc56dda"><path d="M 255 498 L 343 498 L 343 498.101562 L 255 498.101562 Z M 255 498 " clip-rule="nonzero"/></clipPath><clipPath id="128131a7b1"><path d="M 529 102.101562 L 568 102.101562 L 568 264 L 529 264 Z M 529 102.101562 " clip-rule="nonzero"/></clipPath><clipPath id="285a1145c5"><path d="M 473 227 L 584.527344 227 L 584.527344 394 L 473 394 Z M 473 227 " clip-rule="nonzero"/></clipPath><clipPath id="521594bd77"><path d="M 34 102.101562 L 72 102.101562 L 72 264 L 34 264 Z M 34 102.101562 " clip-rule="nonzero"/></clipPath><clipPath id="e3378a2f71"><path d="M 15.277344 227 L 129 227 L 129 394 L 15.277344 394 Z M 15.277344 227 " clip-rule="nonzero"/></clipPath><clipPath id="900f3c8e7e"><path d="M 83 121 L 523 121 L 523 498.101562 L 83 498.101562 Z M 83 121 " clip-rule="nonzero"/></clipPath><clipPath id="b7cbfbdfa7"><path d="M 205.425781 275.839844 L 234.550781 275.839844 L 234.550781 304.964844 L 205.425781 304.964844 Z M 205.425781 275.839844 " clip-rule="nonzero"/></clipPath><clipPath id="b2173cc4e4"><path d="M 219.988281 275.839844 C 211.945312 275.839844 205.425781 282.359375 205.425781 290.402344 C 205.425781 298.445312 211.945312 304.964844 219.988281 304.964844 C 228.03125 304.964844 234.550781 298.445312 234.550781 290.402344 C 234.550781 282.359375 228.03125 275.839844 219.988281 275.839844 Z M 219.988281 275.839844 " clip-rule="nonzero"/></clipPath><clipPath id="75f8962e09"><path d="M 0.425781 0.839844 L 29.550781 0.839844 L 29.550781 29.964844 L 0.425781 29.964844 Z M 0.425781 0.839844 " clip-rule="nonzero"/></clipPath><clipPath id="a87255aa43"><path d="M 14.988281 0.839844 C 6.945312 0.839844 0.425781 7.359375 0.425781 15.402344 C 0.425781 23.445312 6.945312 29.964844 14.988281 29.964844 C 23.03125 29.964844 29.550781 23.445312 29.550781 15.402344 C 29.550781 7.359375 23.03125 0.839844 14.988281 0.839844 Z M 14.988281 0.839844 " clip-rule="nonzero"/></clipPath><clipPath id="43dd4730ee"><rect x="0" width="30" y="0" height="30"/></clipPath><clipPath id="19cf69d14b"><path d="M 383.355469 275.839844 L 412.484375 275.839844 L 412.484375 304.964844 L 383.355469 304.964844 Z M 383.355469 275.839844 " clip-rule="nonzero"/></clipPath><clipPath id="71aba96d16"><path d="M 397.921875 275.839844 C 389.878906 275.839844 383.355469 282.359375 383.355469 290.402344 C 383.355469 298.445312 389.878906 304.964844 397.921875 304.964844 C 405.964844 304.964844 412.484375 298.445312 412.484375 290.402344 C 412.484375 282.359375 405.964844 275.839844 397.921875 275.839844 Z M 397.921875 275.839844 " clip-rule="nonzero"/></clipPath><clipPath id="8f521bcb0d"><path d="M 0.355469 0.839844 L 29.484375 0.839844 L 29.484375 29.964844 L 0.355469 29.964844 Z M 0.355469 0.839844 " clip-rule="nonzero"/></clipPath><clipPath id="ae1fae223c"><path d="M 14.921875 0.839844 C 6.878906 0.839844 0.355469 7.359375 0.355469 15.402344 C 0.355469 23.445312 6.878906 29.964844 14.921875 29.964844 C 22.964844 29.964844 29.484375 23.445312 29.484375 15.402344 C 29.484375 7.359375 22.964844 0.839844 14.921875 0.839844 Z M 14.921875 0.839844 " clip-rule="nonzero"/></clipPath><clipPath id="6bd8b26cfc"><rect x="0" width="30" y="0" height="30"/></clipPath><clipPath id="fbd8760799"><path d="M 248.53125 343.121094 L 370.277344 343.121094 L 370.277344 384.480469 L 248.53125 384.480469 Z M 248.53125 343.121094 " clip-rule="nonzero"/></clipPath><clipPath id="cbede7d20e"><path d="M 0.53125 0.121094 L 122.277344 0.121094 L 122.277344 41.480469 L 0.53125 41.480469 Z M 0.53125 0.121094 " clip-rule="nonzero"/></clipPath><clipPath id="d7c7a8fcd5"><rect x="0" width="123" y="0" height="42"/></clipPath><clipPath id="70037b1819"><path d="M 189.40625 384.480469 L 429.40625 384.480469 L 429.40625 429.21875 L 189.40625 429.21875 Z M 189.40625 384.480469 " clip-rule="nonzero"/></clipPath></defs><g clip-path="url(#461bc56dda)"><path fill="#ffbd59" d="M 255.648438 498.132812 L 255.648438 510.898438 C 255.648438 510.898438 290.0625 532.546875 341.285156 512.144531 L 342.515625 498.132812 Z M 255.648438 498.132812 " fill-opacity="1" fill-rule="nonzero"/></g><g clip-path="url(#128131a7b1)"><path fill="#004aad" d="M 567.628906 121.015625 C 567.628906 110.574219 559.167969 102.113281 548.730469 102.113281 C 538.289062 102.113281 529.828125 110.574219 529.828125 121.015625 C 529.828125 130.113281 536.261719 137.710938 544.824219 139.511719 C 544.121094 164.421875 541.738281 250.582031 542.316406 252.3125 L 553.792969 263.113281 L 551.234375 139.746094 C 560.488281 138.519531 567.628906 130.605469 567.628906 121.015625 Z M 567.628906 121.015625 " fill-opacity="1" fill-rule="nonzero"/></g><g clip-path="url(#285a1145c5)"><path fill="#004aad" d="M 552.027344 247.820312 C 544.570312 235.539062 531.066406 227.335938 515.652344 227.335938 C 492.164062 227.335938 473.121094 246.375 473.121094 269.863281 L 473.121094 351.207031 C 473.121094 374.695312 492.164062 393.734375 515.652344 393.734375 C 528.757812 393.734375 540.480469 387.804688 548.28125 378.480469 C 569.761719 376.335938 586.53125 358.210938 586.53125 336.164062 L 586.53125 289.585938 C 586.53125 268.84375 571.675781 251.570312 552.027344 247.816406 Z M 552.027344 247.820312 " fill-opacity="1" fill-rule="nonzero"/></g><g clip-path="url(#521594bd77)"><path fill="#004aad" d="M 34.191406 121.015625 C 34.191406 110.574219 42.652344 102.113281 53.09375 102.113281 C 63.53125 102.113281 71.996094 110.574219 71.996094 121.015625 C 71.996094 130.113281 65.5625 137.710938 56.996094 139.511719 C 57.699219 164.421875 60.082031 250.582031 59.507812 252.3125 L 48.03125 263.113281 L 50.585938 139.746094 C 41.332031 138.519531 34.191406 130.605469 34.191406 121.015625 Z M 34.191406 121.015625 " fill-opacity="1" fill-rule="nonzero"/></g><g clip-path="url(#e3378a2f71)"><path fill="#004aad" d="M 49.792969 247.820312 C 57.25 235.539062 70.75 227.335938 86.167969 227.335938 C 109.65625 227.335938 128.695312 246.375 128.695312 269.863281 L 128.695312 351.207031 C 128.695312 374.695312 109.65625 393.734375 86.167969 393.734375 C 73.0625 393.734375 61.339844 387.804688 53.539062 378.480469 C 32.058594 376.335938 15.289062 358.210938 15.289062 336.164062 L 15.289062 289.585938 C 15.289062 268.84375 30.140625 251.570312 49.792969 247.816406 Z M 49.792969 247.820312 " fill-opacity="1" fill-rule="nonzero"/></g><g clip-path="url(#900f3c8e7e)"><path fill="#004aad" d="M 503.753906 162.867188 C 482.152344 128.101562 404.492188 126.03125 365.03125 124.386719 C 170.359375 116.289062 124.121094 128.101562 102.515625 162.867188 C 80.914062 197.632812 78.214844 404.199219 92.730469 440.992188 C 107.246094 477.78125 149.664062 488.007812 151.121094 488.917969 C 162.082031 495.769531 264.433594 502.527344 303.136719 501.40625 C 341.839844 502.527344 444.191406 495.769531 455.152344 488.917969 C 456.613281 488.007812 499.03125 477.78125 513.546875 440.992188 C 528.058594 404.199219 525.359375 197.632812 503.757812 162.867188 Z M 503.753906 162.867188 " fill-opacity="1" fill-rule="nonzero"/></g><path fill="#ffbd59" d="M 470 187.496094 C 452.035156 158.582031 385.339844 155.714844 352.625 152.742188 C 315.496094 149.367188 274.992188 150.042969 237.191406 153.414062 C 204.46875 156.335938 154.234375 158.578125 136.269531 187.496094 C 118.304688 216.414062 116.054688 388.226562 128.128906 418.828125 C 140.199219 449.429688 175.480469 457.933594 176.699219 458.691406 C 185.8125 464.390625 270.945312 463.242188 303.136719 462.308594 C 335.328125 463.242188 420.460938 464.386719 429.574219 458.691406 C 430.789062 457.933594 466.070312 449.429688 478.144531 418.828125 C 490.214844 388.226562 487.96875 216.414062 470 187.496094 Z M 470 187.496094 " fill-opacity="1" fill-rule="nonzero"/><path fill="#ffffff" d="M 257.332031 289.4375 C 257.332031 291.042969 257.269531 292.640625 257.152344 294.238281 C 257.035156 295.835938 256.859375 297.417969 256.625 298.992188 C 256.386719 300.566406 256.097656 302.121094 255.746094 303.65625 C 255.394531 305.191406 254.992188 306.699219 254.53125 308.183594 C 254.070312 309.664062 253.554688 311.113281 252.984375 312.527344 C 252.417969 313.941406 251.800781 315.316406 251.128906 316.648438 C 250.460938 317.984375 249.742188 319.269531 248.980469 320.511719 C 248.214844 321.75 247.40625 322.9375 246.554688 324.074219 C 245.703125 325.207031 244.8125 326.28125 243.878906 327.300781 C 242.949219 328.320312 241.980469 329.273438 240.980469 330.164062 C 239.976562 331.054688 238.945312 331.878906 237.882812 332.636719 C 236.820312 333.390625 235.730469 334.078125 234.617188 334.691406 C 233.503906 335.304688 232.371094 335.84375 231.21875 336.308594 C 230.066406 336.777344 228.898438 337.164062 227.71875 337.476562 C 226.535156 337.792969 225.34375 338.027344 224.144531 338.183594 C 222.945312 338.339844 221.746094 338.417969 220.539062 338.417969 C 219.335938 338.417969 218.132812 338.339844 216.933594 338.183594 C 215.734375 338.027344 214.542969 337.792969 213.363281 337.476562 C 212.179688 337.164062 211.011719 336.777344 209.859375 336.308594 C 208.707031 335.84375 207.574219 335.304688 206.460938 334.691406 C 205.347656 334.078125 204.257812 333.390625 203.195312 332.636719 C 202.132812 331.878906 201.101562 331.054688 200.101562 330.164062 C 199.097656 329.273438 198.132812 328.320312 197.199219 327.300781 C 196.269531 326.28125 195.375 325.207031 194.523438 324.074219 C 193.671875 322.9375 192.863281 321.75 192.101562 320.511719 C 191.335938 319.269531 190.617188 317.984375 189.949219 316.648438 C 189.28125 315.316406 188.660156 313.941406 188.09375 312.527344 C 187.523438 311.113281 187.011719 309.664062 186.550781 308.183594 C 186.089844 306.699219 185.683594 305.191406 185.332031 303.65625 C 184.984375 302.121094 184.691406 300.566406 184.457031 298.992188 C 184.222656 297.417969 184.042969 295.835938 183.925781 294.238281 C 183.808594 292.640625 183.75 291.042969 183.75 289.4375 C 183.75 287.832031 183.808594 286.230469 183.925781 284.636719 C 184.042969 283.039062 184.222656 281.453125 184.457031 279.882812 C 184.691406 278.308594 184.984375 276.753906 185.332031 275.21875 C 185.683594 273.683594 186.089844 272.175781 186.550781 270.691406 C 187.011719 269.210938 187.523438 267.761719 188.09375 266.347656 C 188.660156 264.933594 189.28125 263.558594 189.949219 262.222656 C 190.617188 260.890625 191.335938 259.601562 192.101562 258.363281 C 192.863281 257.121094 193.671875 255.9375 194.523438 254.800781 C 195.375 253.667969 196.269531 252.589844 197.199219 251.574219 C 198.132812 250.554688 199.097656 249.601562 200.101562 248.710938 C 201.101562 247.820312 202.132812 246.996094 203.195312 246.238281 C 204.257812 245.480469 205.347656 244.796875 206.460938 244.183594 C 207.574219 243.570312 208.707031 243.03125 209.859375 242.5625 C 211.011719 242.097656 212.179688 241.707031 213.363281 241.394531 C 214.542969 241.082031 215.734375 240.847656 216.933594 240.691406 C 218.132812 240.535156 219.335938 240.453125 220.539062 240.453125 C 221.746094 240.453125 222.945312 240.535156 224.144531 240.691406 C 225.34375 240.847656 226.535156 241.082031 227.71875 241.394531 C 228.898438 241.707031 230.066406 242.097656 231.21875 242.5625 C 232.371094 243.03125 233.503906 243.570312 234.617188 244.183594 C 235.730469 244.796875 236.820312 245.480469 237.882812 246.238281 C 238.945312 246.996094 239.976562 247.820312 240.980469 248.710938 C 241.980469 249.601562 242.949219 250.554688 243.878906 251.574219 C 244.8125 252.589844 245.703125 253.667969 246.554688 254.800781 C 247.40625 255.9375 248.214844 257.121094 248.980469 258.363281 C 249.742188 259.601562 250.460938 260.890625 251.128906 262.222656 C 251.800781 263.558594 252.417969 264.933594 252.984375 266.347656 C 253.554688 267.761719 254.070312 269.210938 254.53125 270.691406 C 254.992188 272.175781 255.394531 273.683594 255.746094 275.21875 C 256.097656 276.753906 256.386719 278.308594 256.625 279.882812 C 256.859375 281.453125 257.035156 283.039062 257.152344 284.636719 C 257.269531 286.230469 257.332031 287.832031 257.332031 289.4375 Z M 257.332031 289.4375 " fill-opacity="1" fill-rule="nonzero"/><path fill="#ffffff" d="M 434.570312 289.4375 C 434.570312 291.042969 434.511719 292.640625 434.394531 294.238281 C 434.273438 295.835938 434.097656 297.417969 433.863281 298.992188 C 433.628906 300.566406 433.335938 302.121094 432.984375 303.65625 C 432.636719 305.191406 432.230469 306.699219 431.769531 308.183594 C 431.308594 309.664062 430.792969 311.113281 430.226562 312.527344 C 429.65625 313.941406 429.039062 315.316406 428.371094 316.648438 C 427.699219 317.984375 426.984375 319.269531 426.21875 320.511719 C 425.453125 321.75 424.648438 322.9375 423.792969 324.074219 C 422.941406 325.207031 422.050781 326.28125 421.121094 327.300781 C 420.1875 328.320312 419.222656 329.273438 418.21875 330.164062 C 417.21875 331.054688 416.183594 331.878906 415.121094 332.636719 C 414.058594 333.390625 412.972656 334.078125 411.859375 334.691406 C 410.746094 335.304688 409.613281 335.84375 408.460938 336.308594 C 407.304688 336.777344 406.140625 337.164062 404.957031 337.476562 C 403.773438 337.792969 402.585938 338.027344 401.386719 338.183594 C 400.1875 338.339844 398.984375 338.417969 397.78125 338.417969 C 396.574219 338.417969 395.371094 338.339844 394.171875 338.183594 C 392.972656 338.027344 391.785156 337.792969 390.601562 337.476562 C 389.421875 337.164062 388.253906 336.777344 387.101562 336.308594 C 385.945312 335.84375 384.8125 335.304688 383.699219 334.691406 C 382.585938 334.078125 381.5 333.390625 380.4375 332.636719 C 379.375 331.878906 378.339844 331.054688 377.339844 330.164062 C 376.339844 329.273438 375.371094 328.320312 374.441406 327.300781 C 373.507812 326.28125 372.617188 325.207031 371.765625 324.074219 C 370.914062 322.9375 370.105469 321.75 369.339844 320.511719 C 368.574219 319.269531 367.859375 317.984375 367.1875 316.648438 C 366.519531 315.316406 365.902344 313.941406 365.332031 312.527344 C 364.765625 311.113281 364.25 309.664062 363.789062 308.183594 C 363.328125 306.699219 362.921875 305.191406 362.574219 303.65625 C 362.222656 302.121094 361.929688 300.566406 361.695312 298.992188 C 361.460938 297.417969 361.285156 295.835938 361.167969 294.238281 C 361.046875 292.640625 360.988281 291.042969 360.988281 289.4375 C 360.988281 287.832031 361.046875 286.230469 361.167969 284.636719 C 361.285156 283.039062 361.460938 281.453125 361.695312 279.882812 C 361.929688 278.308594 362.222656 276.753906 362.574219 275.21875 C 362.921875 273.683594 363.328125 272.175781 363.789062 270.691406 C 364.25 269.210938 364.765625 267.761719 365.332031 266.347656 C 365.902344 264.933594 366.519531 263.558594 367.1875 262.222656 C 367.859375 260.890625 368.574219 259.601562 369.339844 258.363281 C 370.105469 257.121094 370.914062 255.9375 371.765625 254.800781 C 372.617188 253.667969 373.507812 252.589844 374.441406 251.574219 C 375.371094 250.554688 376.339844 249.601562 377.339844 248.710938 C 378.339844 247.820312 379.375 246.996094 380.4375 246.238281 C 381.5 245.480469 382.585938 244.796875 383.699219 244.183594 C 384.8125 243.570312 385.945312 243.03125 387.101562 242.5625 C 388.253906 242.097656 389.421875 241.707031 390.601562 241.394531 C 391.785156 241.082031 392.972656 240.847656 394.171875 240.691406 C 395.371094 240.535156 396.574219 240.453125 397.78125 240.453125 C 398.984375 240.453125 400.1875 240.535156 401.386719 240.691406 C 402.585938 240.847656 403.773438 241.082031 404.957031 241.394531 C 406.140625 241.707031 407.304688 242.097656 408.460938 242.5625 C 409.613281 243.03125 410.746094 243.570312 411.859375 244.183594 C 412.972656 244.796875 414.058594 245.480469 415.121094 246.238281 C 416.183594 246.996094 417.21875 247.820312 418.21875 248.710938 C 419.222656 249.601562 420.1875 250.554688 421.121094 251.574219 C 422.050781 252.589844 422.941406 253.667969 423.792969 254.800781 C 424.648438 255.9375 425.453125 257.121094 426.21875 258.363281 C 426.984375 259.601562 427.699219 260.890625 428.371094 262.222656 C 429.039062 263.558594 429.65625 264.933594 430.226562 266.347656 C 430.792969 267.761719 431.308594 269.210938 431.769531 270.691406 C 432.230469 272.175781 432.636719 273.683594 432.984375 275.21875 C 433.335938 276.753906 433.628906 278.308594 433.863281 279.882812 C 434.097656 281.453125 434.273438 283.039062 434.394531 284.636719 C 434.511719 286.230469 434.570312 287.832031 434.570312 289.4375 Z M 434.570312 289.4375 " fill-opacity="1" fill-rule="nonzero"/><path fill="#ffffff" d="M 518.558594 385.714844 C 518.488281 385.714844 518.417969 385.710938 518.347656 385.703125 C 517.210938 385.589844 516.382812 384.574219 516.5 383.4375 C 522.640625 322.980469 516.566406 236.742188 516.496094 235.957031 C 516.398438 234.820312 517.238281 233.816406 518.375 233.714844 C 519.511719 233.617188 520.515625 234.453125 520.617188 235.59375 C 520.792969 237.578125 522.292969 259.921875 523.003906 288.3125 C 523.664062 314.679688 523.78125 352.65625 520.613281 383.859375 C 520.507812 384.921875 519.609375 385.71875 518.558594 385.71875 Z M 518.558594 385.714844 " fill-opacity="1" fill-rule="nonzero"/><path fill="#ffffff" d="M 547.351562 371.648438 C 547.261719 371.648438 547.175781 371.640625 547.085938 371.628906 C 545.953125 371.488281 545.152344 370.449219 545.296875 369.316406 C 551.425781 321.199219 545.363281 252.554688 545.292969 251.925781 C 545.167969 250.792969 545.984375 249.769531 547.117188 249.644531 C 548.253906 249.519531 549.277344 250.335938 549.402344 251.46875 C 549.578125 253.054688 551.082031 270.898438 551.792969 293.554688 C 552.453125 314.601562 552.574219 344.917969 549.398438 369.839844 C 549.265625 370.882812 548.375 371.648438 547.351562 371.648438 Z M 547.351562 371.648438 " fill-opacity="1" fill-rule="nonzero"/><path fill="#ffffff" d="M 87.765625 390.398438 C 86.71875 390.398438 85.820312 389.601562 85.710938 388.539062 C 82.542969 357.335938 82.664062 319.359375 83.324219 292.992188 C 84.03125 264.601562 85.535156 242.261719 85.710938 240.273438 C 85.8125 239.136719 86.816406 238.296875 87.953125 238.394531 C 89.089844 238.496094 89.929688 239.5 89.828125 240.636719 C 89.757812 241.421875 83.6875 327.664062 89.828125 388.117188 C 89.941406 389.253906 89.117188 390.269531 87.980469 390.382812 C 87.910156 390.390625 87.835938 390.394531 87.765625 390.394531 Z M 87.765625 390.398438 " fill-opacity="1" fill-rule="nonzero"/><path fill="#ffffff" d="M 58.976562 376.328125 C 57.953125 376.328125 57.0625 375.5625 56.929688 374.519531 C 53.753906 349.597656 53.875 319.28125 54.535156 298.234375 C 55.246094 275.578125 56.75 257.734375 56.925781 256.148438 C 57.050781 255.015625 58.074219 254.195312 59.210938 254.324219 C 60.34375 254.449219 61.160156 255.472656 61.035156 256.605469 C 60.964844 257.234375 54.898438 325.878906 61.03125 374 C 61.175781 375.132812 60.375 376.167969 59.242188 376.308594 C 59.152344 376.320312 59.066406 376.328125 58.976562 376.328125 Z M 58.976562 376.328125 " fill-opacity="1" fill-rule="nonzero"/><path stroke-linecap="round" transform="matrix(0.179791, 0, 0, 0.179791, -167.345633, 68.104939)" fill="none" stroke-linejoin="round" d="M 2437.233252 1566.598134 C 2449.508771 1588.411622 2514.101899 1684.421388 2648.502535 1676.795357 C 2802.109469 1668.082998 2835.850851 1552.627942 2835.850851 1552.627942 " stroke="#77f8f7" stroke-width="34" stroke-opacity="1" stroke-miterlimit="4"/><g clip-path="url(#b7cbfbdfa7)"><g clip-path="url(#b2173cc4e4)"><g transform="matrix(1, 0, 0, 1, 205, 275)"><g clip-path="url(#43dd4730ee)"><g clip-path="url(#75f8962e09)"><g clip-path="url(#a87255aa43)"><path fill="#000000" d="M 0.425781 0.839844 L 29.550781 0.839844 L 29.550781 29.964844 L 0.425781 29.964844 Z M 0.425781 0.839844 " fill-opacity="1" fill-rule="nonzero"/></g></g></g></g></g></g><g clip-path="url(#19cf69d14b)"><g clip-path="url(#71aba96d16)"><g transform="matrix(1, 0, 0, 1, 383, 275)"><g clip-path="url(#6bd8b26cfc)"><g clip-path="url(#8f521bcb0d)"><g clip-path="url(#ae1fae223c)"><path fill="#000000" d="M 0.355469 0.839844 L 29.484375 0.839844 L 29.484375 29.964844 L 0.355469 29.964844 Z M 0.355469 0.839844 " fill-opacity="1" fill-rule="nonzero"/></g></g></g></g></g></g><g clip-path="url(#fbd8760799)"><g transform="matrix(1, 0, 0, 1, 248, 343)"><g clip-path="url(#d7c7a8fcd5)"><g clip-path="url(#cbede7d20e)"><path fill="#ffbd59" d="M 0.53125 0.121094 L 122.347656 0.121094 L 122.347656 41.480469 L 0.53125 41.480469 Z M 0.53125 0.121094 " fill-opacity="1" fill-rule="nonzero"/></g></g></g></g><g clip-path="url(#70037b1819)"><path fill="#ffffff" d="M 429.40625 309.21875 C 429.40625 311.179688 429.355469 313.144531 429.261719 315.105469 C 429.164062 317.066406 429.019531 319.023438 428.828125 320.980469 C 428.636719 322.933594 428.394531 324.882812 428.105469 326.824219 C 427.820312 328.765625 427.484375 330.703125 427.097656 332.628906 C 426.714844 334.554688 426.285156 336.46875 425.808594 338.375 C 425.332031 340.28125 424.808594 342.171875 424.238281 344.050781 C 423.667969 345.929688 423.050781 347.792969 422.390625 349.644531 C 421.730469 351.492188 421.023438 353.324219 420.269531 355.140625 C 419.519531 356.953125 418.722656 358.75 417.882812 360.523438 C 417.042969 362.300781 416.160156 364.050781 415.234375 365.785156 C 414.308594 367.515625 413.34375 369.226562 412.332031 370.910156 C 411.324219 372.59375 410.273438 374.253906 409.183594 375.886719 C 408.089844 377.519531 406.960938 379.125 405.789062 380.699219 C 404.621094 382.277344 403.414062 383.824219 402.167969 385.34375 C 400.921875 386.863281 399.636719 388.347656 398.320312 389.804688 C 397 391.257812 395.648438 392.679688 394.257812 394.070312 C 392.871094 395.457031 391.449219 396.8125 389.992188 398.132812 C 388.539062 399.449219 387.050781 400.730469 385.53125 401.976562 C 384.015625 403.222656 382.464844 404.433594 380.890625 405.601562 C 379.3125 406.773438 377.707031 407.902344 376.074219 408.992188 C 374.441406 410.085938 372.78125 411.132812 371.097656 412.144531 C 369.414062 413.152344 367.703125 414.121094 365.972656 415.046875 C 364.242188 415.972656 362.488281 416.855469 360.710938 417.695312 C 358.9375 418.535156 357.140625 419.332031 355.328125 420.082031 C 353.511719 420.835938 351.679688 421.539062 349.832031 422.203125 C 347.984375 422.863281 346.117188 423.480469 344.238281 424.050781 C 342.359375 424.621094 340.46875 425.144531 338.5625 425.621094 C 336.65625 426.097656 334.742188 426.527344 332.816406 426.910156 C 330.890625 427.292969 328.957031 427.628906 327.011719 427.917969 C 325.070312 428.207031 323.121094 428.445312 321.167969 428.640625 C 319.214844 428.832031 317.253906 428.976562 315.292969 429.074219 C 313.332031 429.167969 311.371094 429.21875 309.40625 429.21875 C 307.441406 429.21875 305.480469 429.167969 303.515625 429.074219 C 301.554688 428.976562 299.597656 428.832031 297.644531 428.640625 C 295.6875 428.445312 293.742188 428.207031 291.796875 427.917969 C 289.855469 427.628906 287.921875 427.292969 285.996094 426.910156 C 284.070312 426.527344 282.152344 426.097656 280.246094 425.621094 C 278.34375 425.144531 276.449219 424.621094 274.570312 424.050781 C 272.691406 423.480469 270.828125 422.863281 268.980469 422.203125 C 267.128906 421.539062 265.296875 420.835938 263.484375 420.082031 C 261.667969 419.332031 259.875 418.535156 258.097656 417.695312 C 256.324219 416.855469 254.570312 415.972656 252.835938 415.046875 C 251.105469 414.121094 249.398438 413.152344 247.714844 412.144531 C 246.027344 411.132812 244.371094 410.085938 242.738281 408.992188 C 241.105469 407.902344 239.5 406.773438 237.921875 405.601562 C 236.34375 404.433594 234.796875 403.222656 233.277344 401.976562 C 231.761719 400.730469 230.273438 399.449219 228.820312 398.132812 C 227.363281 396.8125 225.941406 395.457031 224.550781 394.070312 C 223.164062 392.679688 221.808594 391.257812 220.492188 389.804688 C 219.171875 388.347656 217.890625 386.863281 216.644531 385.34375 C 215.398438 383.824219 214.191406 382.277344 213.019531 380.699219 C 211.851562 379.125 210.71875 377.519531 209.628906 375.886719 C 208.539062 374.253906 207.488281 372.59375 206.476562 370.910156 C 205.46875 369.226562 204.5 367.515625 203.574219 365.785156 C 202.648438 364.050781 201.765625 362.300781 200.925781 360.523438 C 200.085938 358.75 199.292969 356.953125 198.539062 355.140625 C 197.789062 353.324219 197.082031 351.492188 196.421875 349.644531 C 195.757812 347.792969 195.144531 345.929688 194.574219 344.050781 C 194.003906 342.171875 193.480469 340.28125 193 338.375 C 192.523438 336.46875 192.09375 334.554688 191.710938 332.628906 C 191.328125 330.703125 190.992188 328.765625 190.703125 326.824219 C 190.417969 324.882812 190.175781 322.933594 189.984375 320.980469 C 189.789062 319.023438 189.644531 317.066406 189.550781 315.105469 C 189.453125 313.144531 189.40625 311.179688 189.40625 309.21875 C 189.40625 307.253906 189.453125 305.289062 189.550781 303.328125 C 189.644531 301.367188 189.789062 299.410156 189.984375 297.453125 C 190.175781 295.5 190.417969 293.550781 190.703125 291.609375 C 190.992188 289.667969 191.328125 287.730469 191.710938 285.804688 C 192.09375 283.878906 192.523438 281.964844 193 280.058594 C 193.480469 278.152344 194.003906 276.261719 194.574219 274.382812 C 195.144531 272.503906 195.757812 270.640625 196.421875 268.789062 C 197.082031 266.941406 197.789062 265.109375 198.539062 263.296875 C 199.292969 261.480469 200.085938 259.6875 200.925781 257.910156 C 201.765625 256.136719 202.648438 254.382812 203.574219 252.648438 C 204.5 250.917969 205.46875 249.210938 206.476562 247.523438 C 207.488281 245.839844 208.539062 244.179688 209.628906 242.546875 C 210.71875 240.914062 211.851562 239.308594 213.019531 237.734375 C 214.191406 236.15625 215.398438 234.609375 216.644531 233.089844 C 217.890625 231.570312 219.171875 230.085938 220.492188 228.628906 C 221.808594 227.175781 223.164062 225.753906 224.550781 224.363281 C 225.941406 222.976562 227.363281 221.621094 228.820312 220.304688 C 230.273438 218.984375 231.761719 217.703125 233.277344 216.457031 C 234.796875 215.210938 236.34375 214 237.921875 212.832031 C 239.5 211.664062 241.105469 210.53125 242.738281 209.441406 C 244.371094 208.347656 246.027344 207.300781 247.714844 206.289062 C 249.398438 205.28125 251.105469 204.3125 252.835938 203.386719 C 254.570312 202.460938 256.324219 201.578125 258.097656 200.738281 C 259.875 199.898438 261.667969 199.101562 263.484375 198.351562 C 265.296875 197.601562 267.128906 196.894531 268.980469 196.230469 C 270.828125 195.570312 272.691406 194.953125 274.570312 194.382812 C 276.449219 193.8125 278.34375 193.289062 280.246094 192.8125 C 282.152344 192.335938 284.070312 191.90625 285.996094 191.523438 C 287.921875 191.140625 289.855469 190.804688 291.796875 190.515625 C 293.742188 190.226562 295.6875 189.988281 297.644531 189.792969 C 299.597656 189.601562 301.554688 189.457031 303.515625 189.363281 C 305.480469 189.265625 307.441406 189.21875 309.40625 189.21875 C 311.371094 189.21875 313.332031 189.265625 315.292969 189.363281 C 317.253906 189.457031 319.214844 189.601562 321.167969 189.792969 C 323.121094 189.988281 325.070312 190.226562 327.011719 190.515625 C 328.957031 190.804688 330.890625 191.140625 332.816406 191.523438 C 334.742188 191.90625 336.65625 192.335938 338.5625 192.8125 C 340.46875 193.289062 342.359375 193.8125 344.238281 194.382812 C 346.117188 194.953125 347.984375 195.570312 349.832031 196.230469 C 351.679688 196.894531 353.511719 197.601562 355.328125 198.351562 C 357.140625 199.101562 358.9375 199.898438 360.710938 200.738281 C 362.488281 201.578125 364.242188 202.460938 365.972656 203.386719 C 367.703125 204.3125 369.414062 205.28125 371.097656 206.289062 C 372.78125 207.300781 374.441406 208.347656 376.074219 209.441406 C 377.707031 210.53125 379.3125 211.664062 380.890625 212.832031 C 382.464844 214 384.015625 215.210938 385.53125 216.457031 C 387.050781 217.703125 388.539062 218.984375 389.992188 220.304688 C 391.449219 221.621094 392.871094 222.976562 394.257812 224.363281 C 395.648438 225.753906 397 227.175781 398.320312 228.628906 C 399.636719 230.085938 400.921875 231.570312 402.167969 233.089844 C 403.414062 234.609375 404.621094 236.15625 405.789062 237.734375 C 406.960938 239.308594 408.089844 240.914062 409.183594 242.546875 C 410.273438 244.179688 411.324219 245.839844 412.332031 247.523438 C 413.34375 249.210938 414.308594 250.917969 415.234375 252.648438 C 416.160156 254.382812 417.042969 256.136719 417.882812 257.910156 C 418.722656 259.6875 419.519531 261.480469 420.269531 263.296875 C 421.023438 265.109375 421.730469 266.941406 422.390625 268.789062 C 423.050781 270.640625 423.667969 272.503906 424.238281 274.382812 C 424.808594 276.261719 425.332031 278.152344 425.808594 280.058594 C 426.285156 281.964844 426.714844 283.878906 427.101562 285.804688 C 427.484375 287.730469 427.820312 289.667969 428.105469 291.609375 C 428.394531 293.550781 428.636719 295.5 428.828125 297.453125 C 429.019531 299.410156 429.164062 301.367188 429.261719 303.328125 C 429.355469 305.289062 429.40625 307.253906 429.40625 309.21875 Z M 429.40625 309.21875 " fill-opacity="1" fill-rule="nonzero"/></g></svg>